<svg width="101" height="101" viewBox="0 0 101 101" fill="none" xmlns="http://www.w3.org/2000/svg">
<path d="M50.5285 100.85L9.68944 90.863L0.590027 0.850006H100.59L91.4808 90.85L50.5285 100.85Z" fill="#264DE4"/>
<path d="M83.6812 85.1227L91.466 8.21431H50.5974V93.1948L83.6812 85.1227Z" fill="#2965F1"/>
<path d="M21.4773 41.5838L22.6 52.6216H50.6171V41.5838H21.4773ZM19.2221 19.2391L20.3596 30.2768H50.6122V19.2391H19.1975H19.2221ZM50.6122 70.2551H50.558L36.6134 66.9334L35.7222 58.1275H23.1317L24.8847 75.4614L50.5285 81.7532H50.5875L50.6122 70.2551Z" fill="#EBEBEB"/>
<path d="M79.6486 41.5838L81.9086 19.2391H50.5285V30.2768H68.1709L67.0335 41.5665H50.5285V52.6042H65.9453L64.4681 66.9334L50.5285 70.2638V81.7489L76.192 75.4744L76.3791 73.6073L79.3334 44.5409L79.6387 41.5751L79.6486 41.5838Z" fill="white"/>
</svg>
