<svg width="101" height="101" viewBox="0 0 101 101" fill="none" xmlns="http://www.w3.org/2000/svg">
<path d="M100.24 0.419983L91.129 90.4042L50.1772 100.42L9.33907 90.4042L0.23999 0.419983H100.24Z" fill="#E44D26"/>
<path d="M50.237 92.7658L83.3272 84.6793L91.0991 7.77898H50.237V92.7658Z" fill="#F16529"/>
<path d="M32.5291 29.8559H50.237V18.8175H18.8506L19.1495 21.78L22.2284 52.1965H50.243V41.158H33.6769L32.5291 29.8559ZM35.3748 57.7157H22.8203L24.5719 75.0483L50.1832 81.3425H50.243V69.8243H50.1892L36.2477 66.5033L35.3748 57.7157Z" fill="#EBEBEB"/>
<path d="M50.1951 52.1965H65.6074L64.1546 66.5138L50.1951 69.8349V81.3425L75.8602 75.0694L76.0456 73.2033L78.9869 44.1416L79.2918 41.1791H50.1951V52.2176V52.1965ZM50.1951 29.8296V29.8559H80.4337L80.6848 27.3731L81.2826 21.7748L81.5816 18.8122H50.1951V29.8243V29.8296Z" fill="white"/>
</svg>
