<svg width="101" height="101" viewBox="0 0 101 101" fill="none" xmlns="http://www.w3.org/2000/svg">
<path d="M0.0100098 0.019989H100.01V100.02H0.0100098V0.019989Z" fill="#F7DF1E"/>
<path d="M26.3086 83.5883L33.9614 78.956C35.4396 81.5742 36.7809 83.7897 40.0032 83.7897C43.0924 83.7897 45.0379 82.5813 45.0379 77.8843V45.9292H54.4349V78.0135C54.4349 87.7456 48.7352 92.1765 40.406 92.1765C32.8899 92.1765 28.5277 88.2814 26.3124 83.5845L26.3086 83.5883ZM59.5381 82.5775L67.1871 78.1465C69.201 81.4374 71.8191 83.8467 76.4511 83.8467C80.3459 83.8467 82.8272 81.901 82.8272 79.2144C82.8272 75.9919 80.2775 74.8518 75.9875 72.9708L73.6392 71.9638C66.8603 69.0795 62.3614 65.4542 62.3614 57.8007C62.3614 50.7515 67.7305 45.382 76.1205 45.382C82.0938 45.382 86.38 47.4644 89.4769 52.8986L82.1622 57.5993C80.5511 54.7112 78.807 53.5712 76.1205 53.5712C73.3694 53.5712 71.6215 55.3154 71.6215 57.5993C71.6215 60.419 73.3657 61.559 77.3935 63.2995L79.7418 64.3065C87.7214 67.7266 92.228 71.2189 92.228 79.0738C92.228 87.5328 85.5821 92.1652 76.6487 92.1652C67.9091 92.1652 62.2854 87.985 59.5495 82.5661" fill="black"/>
</svg>
