<svg width="101" height="101" viewBox="0 0 101 101" fill="none" xmlns="http://www.w3.org/2000/svg">
<path d="M100.401 47.295C99.6879 46.2534 90.5356 29.4141 88.9904 26.6364C87.3264 23.8588 86.6132 24.3796 85.5435 24.5532C84.4737 24.7268 72.9442 27.6781 71.6367 27.8517C70.3293 28.1989 69.4972 28.8933 70.3293 30.6293C71.0424 32.1917 78.6495 47.8158 80.3136 51.4614L50.004 62.0512L25.9941 3.2002C25.0432 1.11698 24.8055 0.42259 22.666 0.596148C20.5265 0.769706 3.76708 2.85298 2.57847 2.85298C1.38986 3.02658 0.0824032 3.72098 1.27101 7.88742C2.45962 12.0539 21.4774 71.7728 21.9528 73.5088C22.4283 75.2449 23.8546 78.0225 27.0639 76.9809C30.392 75.7657 41.8026 71.4257 48.1022 68.9952C51.4303 77.6753 58.0866 95.3826 59.394 97.9867C61.0581 101.459 62.2467 100.764 64.7428 99.7227C66.7634 98.8547 95.8844 83.5777 97.1918 82.7097C98.4993 81.8417 99.3313 81.3209 98.3805 79.4113C97.6673 78.0225 90.0602 62.9191 86.0189 55.107C88.7527 54.0654 98.6182 50.2462 99.6879 49.7254C100.877 49.2046 101.114 48.3366 100.401 47.295V47.295ZM45.3684 63.7872C45.0119 63.9608 28.0147 69.8633 27.1827 70.2105C26.2318 70.5577 26.2318 70.3841 26.2318 69.8633C25.9941 69.3425 6.02543 8.92908 5.66885 8.23467C5.43113 7.54026 5.43113 6.84587 5.66885 6.84587C5.90658 6.84587 21.7151 4.76264 22.1905 4.76264C22.7848 4.76264 22.666 4.93624 22.9037 5.45704C22.9037 5.45704 45.1307 61.5304 45.4873 62.3984C45.9627 63.2664 45.725 63.6136 45.3684 63.7872V63.7872ZM93.1506 76.8073C93.3883 77.5017 93.7449 77.8489 92.794 78.1961C91.962 78.7169 64.1485 92.4315 63.5542 92.7787C62.9599 93.1259 62.6033 93.2995 61.8901 91.7371C61.1769 90.1746 52.1435 67.4328 52.1435 67.4328L81.7399 56.1487C82.4531 55.8015 82.6908 55.6279 83.1662 56.6695C83.6417 57.8847 92.9128 76.2865 93.1506 76.8073V76.8073ZM95.0523 46.2534C94.3392 46.427 83.5228 50.4199 83.5228 50.4199L74.6083 32.7125C74.3705 32.1917 74.1328 31.6709 74.7271 31.4973C75.3214 31.3237 85.4246 28.7197 85.9 28.5461C86.3755 28.3724 86.7321 28.1989 87.3264 29.4141C87.9207 30.4557 95.5278 44.691 95.8844 45.2118C96.2409 45.7326 95.7655 46.0798 95.0523 46.2534V46.2534Z" fill="#FB503B"/>
</svg>
