<svg width="100" height="101" viewBox="0 0 100 101" fill="none" xmlns="http://www.w3.org/2000/svg">
<path d="M0 50.6037C0 78.2177 22.3862 100.604 49.9999 100.604C77.6136 100.604 100 78.2177 100 50.6037C100 22.9901 77.6136 0.603708 49.9999 0.603708C22.3862 0.603708 0 22.9901 0 50.6037Z" fill="url(#paint0_radial)"/>
<path d="M49.9999 96.8914C76.5351 96.8914 98.0467 76.1675 98.0467 50.6036C98.0467 25.0399 76.5351 4.31576 49.9999 4.31576C23.4648 4.31576 1.95312 25.0399 1.95312 50.6036C1.95312 76.1675 23.4648 96.8914 49.9999 96.8914Z" fill="#777BB3"/>
<path d="M27.1655 56.3427C29.3474 56.3427 30.9762 55.5778 32.0069 54.0699C33.0265 52.5775 33.7307 49.9919 34.0998 46.3853C34.4439 43.0141 34.3128 40.6602 33.7102 39.3899C33.0941 38.0924 31.762 37.4344 29.751 37.4344H26.2641L24.3311 56.3427H27.1655ZM15.7609 79.6342C15.599 79.6342 15.4453 79.4967 15.3424 79.2588C15.2393 79.0213 15.1975 78.7084 15.2285 78.4062L20.3514 28.299C20.401 27.8146 20.6243 27.4646 20.884 27.4646H31.9253C35.3953 27.4646 37.9782 29.2557 39.6016 32.7888C41.2337 36.3405 41.7377 41.3051 41.0995 47.5445C40.8398 50.0865 40.3932 52.4472 39.772 54.5608C39.15 56.6769 38.3281 58.6347 37.3286 60.3812C36.1321 62.5099 34.7779 64.0535 33.3073 64.9618C31.86 65.858 30.0013 66.3125 27.7829 66.3125H23.312L22.0353 78.7995C21.9857 79.2843 21.7625 79.6342 21.5029 79.6342H15.7609Z" fill="black"/>
<path d="M26.7114 38.4656H29.751C32.1781 38.4656 33.0212 39.4781 33.3077 40.0814C33.783 41.0832 33.8727 43.1954 33.5672 46.1895C33.224 49.5414 32.5878 51.918 31.6759 53.2526C30.7424 54.6188 29.2248 55.3112 27.1655 55.3112H24.9892L26.7114 38.4656ZM31.9253 26.4331H20.8839C20.3645 26.4331 19.918 27.133 19.8189 28.1022L14.6959 78.2094C14.6341 78.8141 14.7176 79.4395 14.9236 79.9149C15.1298 80.3904 15.4368 80.6654 15.7609 80.6654H21.5027C22.0223 80.6654 22.4688 79.9655 22.5679 78.9963L23.7593 67.3437H27.7829C30.0583 67.3437 31.9738 66.872 33.4757 65.9421C35.0203 64.9881 36.4414 63.3705 37.6992 61.1346C38.7394 59.3152 39.5962 57.2731 40.2454 55.0643C40.8949 52.8548 41.3614 50.3909 41.6322 47.741C42.304 41.1733 41.7582 35.914 40.0102 32.1104C38.2791 28.3432 35.5589 26.4331 31.9253 26.4331ZM23.6728 57.3739H27.1655C29.4805 57.3739 31.2048 56.545 32.3378 54.8869C33.471 53.2285 34.2353 50.4607 34.6324 46.5821C35.0123 42.8582 34.8393 40.2303 34.1132 38.6994C33.3862 37.1685 31.9324 36.4029 29.751 36.4029H25.8169L23.6728 57.3739V57.3739ZM31.9253 28.4958C35.2469 28.4958 37.67 30.1528 39.1931 33.4673C40.716 36.7817 41.1746 41.4081 40.567 47.3477C40.3169 49.7944 39.8939 52.0314 39.2984 54.0581C38.7021 56.086 37.9236 57.9404 36.9615 59.6219C35.8149 61.6616 34.5412 63.1151 33.1397 63.9808C31.7382 64.8488 29.953 65.281 27.7829 65.281H22.8647L21.5027 78.6027H15.7609L20.8839 28.4958H31.9253" fill="white"/>
<path d="M54.2648 66.3125C54.1027 66.3125 53.9492 66.175 53.8463 65.9371C53.743 65.6995 53.7013 65.387 53.7322 65.0845L55.9983 42.914C56.2139 40.8056 56.1607 39.2923 55.8488 38.6528C55.6578 38.2619 55.0842 37.6063 53.388 37.6063H49.2825L46.4333 65.4778C46.3837 65.9625 46.1604 66.3125 45.9007 66.3125H40.2041C40.0421 66.3125 39.8885 66.175 39.7854 65.9371C39.6824 65.6995 39.6406 65.3867 39.6715 65.0845L44.7945 14.9772C44.844 14.4929 45.0674 14.1429 45.3271 14.1429H51.0237C51.1857 14.1429 51.3392 14.2804 51.4423 14.5179C51.5454 14.7558 51.5872 15.0684 51.5563 15.3709L50.32 27.4646H54.7366C58.1012 27.4646 60.3827 28.5922 61.7116 30.9121C63.0661 33.2787 63.4887 37.0628 62.9679 42.1605L60.5844 65.4778C60.5348 65.9625 60.3117 66.3125 60.0518 66.3125H54.2648Z" fill="black"/>
<path d="M51.0237 13.1113H45.3271C44.8075 13.1113 44.361 13.8113 44.2619 14.7804L39.1389 64.8877C39.0771 65.4924 39.1606 66.1177 39.3668 66.5932C39.573 67.0687 39.88 67.3437 40.2041 67.3437H45.9007C46.4201 67.3437 46.8668 66.6437 46.9659 65.6746L49.7297 38.6375H53.388C55.0813 38.6375 55.4367 39.3251 55.4509 39.3546C55.5537 39.5647 55.6888 40.5376 55.4658 42.7172L53.1996 64.8877C53.1378 65.4924 53.2213 66.1177 53.4275 66.5932C53.6336 67.0687 53.9407 67.3437 54.2648 67.3437H60.0518C60.5712 67.3437 61.0179 66.6437 61.117 65.6746L63.5003 42.3573C64.0597 36.8838 63.5812 32.778 62.0787 30.1528C60.645 27.6497 58.2434 26.4331 54.7366 26.4331H50.9779L52.0889 15.5677C52.1505 14.963 52.0672 14.3373 51.861 13.8622C51.6548 13.3867 51.3478 13.1113 51.0237 13.1113ZM51.0237 15.174L49.6617 28.4958H54.7366C57.9298 28.4958 60.1323 29.5553 61.3445 31.6717C62.5567 33.7894 62.9198 37.2207 62.4353 41.964L60.0518 65.281H54.2648L56.5309 43.1108C56.7888 40.5888 56.6941 38.8685 56.2463 37.9513C55.7983 37.0341 54.8455 36.5748 53.388 36.5748H48.8351L45.9007 65.281H40.2041L45.3271 15.174H51.0237Z" fill="white"/>
<path d="M71.9815 56.3427C74.1634 56.3427 75.7923 55.5778 76.8229 54.0699C77.8425 52.5779 78.5467 49.9923 78.916 46.3853C79.2602 43.0141 79.129 40.6602 78.5263 39.3899C77.9102 38.0924 76.5781 37.4344 74.5671 37.4344H71.0802L69.1471 56.3427H71.9815ZM60.5771 79.6342C60.4152 79.6342 60.2615 79.4967 60.1586 79.2588C60.0555 79.0213 60.0136 78.7084 60.0445 78.4062L65.1675 28.299C65.2172 27.8146 65.4404 27.4646 65.7003 27.4646H76.7414C80.2116 27.4646 82.7942 29.2557 84.4178 32.7888C86.05 36.3401 86.5538 41.3048 85.9158 47.5445C85.6557 50.0865 85.2092 52.4472 84.588 54.5608C83.9661 56.6769 83.1442 58.6347 82.1446 60.3812C80.9482 62.5099 79.594 64.0535 78.1234 64.9618C76.6761 65.858 74.8173 66.3125 72.5989 66.3125H68.1279L66.8517 78.7995C66.802 79.2843 66.5788 79.6342 66.3189 79.6342H60.5771Z" fill="black"/>
<path d="M71.5275 38.4656H74.5671C76.9942 38.4656 77.8373 39.4781 78.1238 40.0814C78.5992 41.0832 78.6889 43.1954 78.3833 46.1891C78.0401 49.5414 77.4037 51.918 76.492 53.2526C75.5585 54.6188 74.0409 55.3112 71.9816 55.3112H69.8055L71.5275 38.4656ZM76.7414 26.4331H65.7001C65.1807 26.4331 64.7342 27.133 64.6351 28.1022L59.5122 78.2094C59.4503 78.8142 59.5339 79.4395 59.7399 79.915C59.946 80.3904 60.2531 80.6654 60.5772 80.6654H66.319C66.8384 80.6654 67.2851 79.9655 67.3842 78.9964L68.5754 67.3437H72.599C74.8744 67.3437 76.7899 66.872 78.2918 65.9421C79.8364 64.9881 81.2578 63.3702 82.5156 61.1339C83.5558 59.3149 84.4123 57.2732 85.0615 55.0643C85.7109 52.8548 86.1775 50.3909 86.4482 47.741C87.1201 41.1729 86.5743 35.9137 84.8263 32.11C83.0952 28.3432 80.3751 26.4331 76.7414 26.4331ZM68.4891 57.3739H71.9816C74.2966 57.3739 76.0209 56.545 77.1539 54.8869C78.2873 53.2285 79.0513 50.4607 79.4485 46.5821C79.8286 42.8582 79.6555 40.2303 78.9293 38.6994C78.2023 37.1685 76.7485 36.4029 74.5671 36.4029H70.633L68.4891 57.3739ZM76.7414 28.4958C80.063 28.4958 82.4861 30.1529 84.0092 33.4673C85.5323 36.7818 85.9907 41.4081 85.3831 47.3477C85.133 49.7944 84.71 52.0314 84.1144 54.0581C83.5182 56.0861 82.7397 57.9405 81.7776 59.6219C80.631 61.6616 79.3573 63.1151 77.9558 63.9808C76.5542 64.8488 74.7691 65.281 72.599 65.281H67.6807L66.319 78.6027H60.5772L65.7001 28.4958H76.7414" fill="white"/>
<defs>
<radialGradient id="paint0_radial" cx="0" cy="0" r="1" gradientUnits="userSpaceOnUse" gradientTransform="translate(30.0202 18.1822) scale(65.6571 124.814)">
<stop stop-color="#AEB2D5"/>
<stop offset="0.3" stop-color="#AEB2D5"/>
<stop offset="0.75" stop-color="#484C89"/>
<stop offset="1" stop-color="#484C89"/>
</radialGradient>
</defs>
</svg>
